<?xml version="1.0" standalone="no"?>
<!DOCTYPE svg PUBLIC "-//W3C//DTD SVG 20010904//EN"
 "http://www.w3.org/TR/2001/REC-SVG-20010904/DTD/svg10.dtd">
<svg version="1.0" xmlns="http://www.w3.org/2000/svg"
 width="133.000000pt" height="40.000000pt" viewBox="0 0 133.000000 40.000000"
 preserveAspectRatio="xMidYMid meet">
<metadata>
Created by potrace 1.10, written by Peter Selinger 2001-2011
</metadata>
<g transform="translate(0.000000,40.000000) scale(0.100000,-0.100000)"
fill="#000000" stroke="none">
<path d="M175 372 c-82 -4 -115 -25 -115 -77 0 -49 34 -75 101 -75 61 0 79
-11 79 -50 0 -41 -17 -50 -97 -50 -66 0 -73 -2 -73 -20 0 -18 7 -20 78 -20 97
0 122 19 122 92 0 61 -20 78 -92 78 -63 0 -81 14 -76 57 3 28 4 28 81 31 58 2
77 6 77 17 0 19 -6 20 -85 17z"/>
<path d="M1050 374 c0 -4 18 -35 40 -70 22 -35 40 -67 40 -71 0 -4 -18 -37
-40 -74 -22 -37 -40 -70 -40 -73 0 -3 9 -6 19 -6 13 0 30 19 53 62 19 34 38
63 44 65 5 1 25 -26 43 -62 23 -43 41 -65 53 -65 25 0 24 5 -22 81 -22 37 -40
70 -40 73 0 3 19 35 41 71 23 36 39 68 36 72 -14 13 -38 -9 -68 -62 -17 -30
-35 -57 -39 -60 -4 -3 -20 16 -35 42 -15 27 -35 56 -43 66 -15 16 -42 24 -42
11z"/>
<path d="M340 320 c0 -11 -7 -23 -15 -26 -17 -7 -21 -34 -5 -34 6 0 10 -29 10
-68 0 -59 3 -72 23 -90 30 -28 67 -29 67 -2 0 15 -6 19 -22 17 -22 -2 -23 3
-28 71 -5 70 -4 72 18 72 13 0 22 6 22 15 0 9 -9 15 -24 15 -19 0 -22 4 -18
25 3 18 0 25 -12 25 -9 0 -16 -8 -16 -20z"/>
<path d="M475 270 c-28 -31 -24 -134 6 -166 33 -35 96 -34 132 4 23 24 27 37
27 83 0 45 -4 60 -23 77 -32 30 -116 31 -142 2z m123 -73 c2 -35 -2 -64 -9
-73 -14 -17 -70 -19 -87 -2 -13 13 -17 120 -5 132 4 4 28 6 53 4 l45 -3 3 -58z"/>
<path d="M692 188 c3 -89 5 -103 21 -106 15 -3 17 5 17 66 0 75 18 106 63 107
12 0 23 7 25 18 5 23 -44 23 -70 0 -17 -15 -18 -15 -18 0 0 10 -8 17 -20 17
-20 0 -21 -5 -18 -102z"/>
<path d="M830 285 c0 -8 73 -170 82 -182 6 -7 3 -25 -7 -48 -18 -46 -18 -45
-1 -45 19 0 17 -4 81 150 49 120 52 131 33 128 -16 -2 -28 -22 -51 -81 -16
-43 -33 -75 -37 -70 -4 4 -20 41 -36 80 -20 52 -34 73 -46 73 -10 0 -18 -2
-18 -5z"/>
</g>
</svg>
