<?xml version="1.0" standalone="no"?>
<!DOCTYPE svg PUBLIC "-//W3C//DTD SVG 20010904//EN"
 "http://www.w3.org/TR/2001/REC-SVG-20010904/DTD/svg10.dtd">
<svg version="1.0" xmlns="http://www.w3.org/2000/svg"
 width="500.000000pt" height="500.000000pt" viewBox="0 0 500.000000 500.000000"
 preserveAspectRatio="xMidYMid meet">
<metadata>
Created by potrace 1.16, written by Peter Selinger 2001-2019
</metadata>
<g transform="translate(0.000000,500.000000) scale(0.100000,-0.100000)"
fill="#000000" stroke="none">
<path d="M1941 4985 c-171 -39 -304 -100 -427 -199 -275 -220 -410 -580 -349
-930 58 -334 279 -609 589 -736 142 -58 229 -75 381 -74 146 0 217 14 362 70
365 140 613 508 613 909 0 439 -285 815 -715 941 -76 22 -114 27 -240 30 -106
3 -169 -1 -214 -11z"/>
<path d="M2730 2823 c-399 -62 -716 -331 -834 -706 -133 -424 32 -901 397
-1149 86 -59 228 -122 332 -148 70 -18 119 -24 222 -24 111 -1 133 -3 133 -16
0 -37 -85 -261 -131 -349 -113 -212 -104 -188 -88 -234 28 -81 112 -106 183
-56 77 55 252 217 342 317 353 390 546 784 595 1208 63 550 -281 1037 -808
1143 -94 20 -266 27 -343 14z"/>
</g>
</svg>
